<!DOCTYPE svg PUBLIC "-//W3C//DTD SVG 1.1//EN" "http://www.w3.org/Graphics/SVG/1.1/DTD/svg11.dtd">
<!-- Uploaded to: SVG Repo, www.svgrepo.com, Transformed by: SVG Repo Mixer Tools -->
<svg height="800px" width="800px" version="1.1" id="Layer_1" xmlns="http://www.w3.org/2000/svg" xmlns:xlink="http://www.w3.org/1999/xlink" viewBox="0 0 508 508" xml:space="preserve" fill="#000000">
<g id="SVGRepo_bgCarrier" stroke-width="0"/>
<g id="SVGRepo_tracerCarrier" stroke-linecap="round" stroke-linejoin="round"/>
<g id="SVGRepo_iconCarrier"> <circle style="fill:#ED7161;" cx="254" cy="254" r="254"/> <g> <path style="fill:#E8EDEE;" d="M462.4,258l-58-58L346,258h40.4c0,35.2-13.6,68.4-38.8,93.6c-24.8,24.8-58,38.8-93.6,38.8 c-36.4,0-69.6-14.8-93.6-38.8l-25.2,25.2l0,0c15.2,15.2,33.2,27.6,53.2,36s42,13.2,65.2,13.2c44.8,0,87.2-17.6,118.8-49.2 c32-31.6,49.6-73.6,49.6-118.8H462.4z"/> <path style="fill:#E8EDEE;" d="M122,258c0-72.8,59.2-132,132-132c36.4,0,69.6,14.8,93.6,38.8l25.2-25.2 c-30.4-30.4-72.4-49.2-118.8-49.2c-92.4,0-168,75.2-168,168H45.6l0,0l58,58L162,258H122z"/> </g> <polygon style="fill:#ECBA16;" points="344,224.8 272,224.8 293.6,89.6 164,283.2 236,283.2 214.4,418.4 "/> </g>
</svg>